<svg width="90" height="20" viewBox="0 0 90 20" fill="none" xmlns="http://www.w3.org/2000/svg">
<path fill-rule="evenodd" clip-rule="evenodd" d="M16.5967 8.02957e-07C18.35 8.90416e-07 19.7713 1.42132 19.7713 3.1746V16.8254C19.7713 18.5787 18.35 20 16.5967 20H3.6746C1.92132 20 0.5 18.5787 0.5 16.8254L0.5 3.1746C0.5 1.42132 1.92132 7.09001e-08 3.6746 1.5836e-07L16.5967 8.02957e-07ZM7.38261 12.8571L12.8887 12.8571V7.14286L7.38261 7.14286V12.8571Z" fill="url(#paint0_linear_2099_20)"/>
<path fill-rule="evenodd" clip-rule="evenodd" d="M86.355 8.02957e-07C88.1083 8.90416e-07 89.5296 1.42132 89.5296 3.1746V16.8254C89.5296 18.5787 88.1083 20 86.355 20H73.4329C71.6796 20 70.2583 18.5787 70.2583 16.8254L70.2583 3.1746C70.2583 1.42132 71.6796 7.09001e-08 73.4329 1.5836e-07L86.355 8.02957e-07ZM77.1409 12.8571L82.647 12.8571V7.14286L77.1409 7.14286V12.8571Z" fill="url(#paint1_linear_2099_20)"/>
<path d="M60.547 7.67187L64.0075 3.66854C65.2059 2.28216 64.221 0.129028 62.3885 0.129028H49.7836C48.7417 0.129028 47.8512 0.879371 47.6745 1.90617L47.4039 3.47885C47.1789 4.78659 48.186 5.98177 49.513 5.98177H53.8867L46.8434 14.12C46.0872 14.9937 46.1612 16.3099 47.0105 17.0934L48.392 18.3679C49.2813 19.1883 50.6733 19.1089 51.4636 18.1927L56.5062 12.3465L61.7652 17.8043C62.6068 18.6778 64.0056 18.6778 64.8472 17.8043L66.148 16.4544C66.9466 15.6255 66.9466 14.3134 66.148 13.4846L60.547 7.67187Z" fill="url(#paint2_linear_2099_20)"/>
<path d="M24.82 13.8405L26.0697 12.5773L30.9776 7.4994L26.2612 7.4994C25.138 7.4994 24.2275 6.5889 24.2275 5.46574V2.42089C24.2275 1.29773 25.138 0.387232 26.2612 0.387218L40.665 0.387038C41.7882 0.387024 42.6987 1.29753 42.6987 2.42071V4.73643C42.6987 5.2635 42.4941 5.76998 42.1279 6.14913L36.0164 12.4779H40.7523C41.8772 12.4779 42.7883 13.391 42.786 14.5158L42.7797 17.5759C42.7774 18.6974 41.8675 19.6054 40.746 19.6054H26.2658C25.1426 19.6054 24.2321 18.6949 24.2321 17.5717V15.2707C24.2321 14.7352 24.4434 14.2212 24.82 13.8405Z" fill="url(#paint3_linear_2099_20)"/>
<defs>
<linearGradient id="paint0_linear_2099_20" x1="10.1356" y1="0" x2="10.1356" y2="20" gradientUnits="userSpaceOnUse">
<stop stop-color="#F86969"/>
<stop offset="1" stop-color="#FBA5A5"/>
</linearGradient>
<linearGradient id="paint1_linear_2099_20" x1="79.894" y1="0" x2="79.894" y2="20" gradientUnits="userSpaceOnUse">
<stop stop-color="#F86969"/>
<stop offset="1" stop-color="#FBA5A5"/>
</linearGradient>
<linearGradient id="paint2_linear_2099_20" x1="56.5097" y1="0.129028" x2="56.5097" y2="19.9318" gradientUnits="userSpaceOnUse">
<stop stop-color="#F86969"/>
<stop offset="1" stop-color="#FBA5A5"/>
</linearGradient>
<linearGradient id="paint3_linear_2099_20" x1="33.5089" y1="0.387024" x2="33.5089" y2="19.6054" gradientUnits="userSpaceOnUse">
<stop stop-color="#F86969"/>
<stop offset="1" stop-color="#FBA5A5"/>
</linearGradient>
</defs>
</svg>
