<svg width="662" height="150" viewBox="0 0 662 150" fill="none" xmlns="http://www.w3.org/2000/svg">
<path fill-rule="evenodd" clip-rule="evenodd" d="M124.393 0.273443C137.983 0.273444 149 11.2902 149 24.8801V124.667C149 138.257 137.983 149.273 124.393 149.273H24.6066C11.0168 149.273 1.56405e-07 138.257 3.4934e-07 124.667L1.76601e-06 24.8801C1.95894e-06 11.2902 11.0168 0.273438 24.6066 0.273439L124.393 0.273443ZM53.2143 96.0591L95.7857 96.0592V53.4877L53.2143 53.4877V96.0591Z" fill="url(#paint0_linear_2231_49603)"/>
<path fill-rule="evenodd" clip-rule="evenodd" d="M637.393 0.273443C650.983 0.273444 662 11.2902 662 24.8801V124.667C662 138.257 650.983 149.273 637.393 149.273H537.607C524.017 149.273 513 138.257 513 124.667L513 24.8801C513 11.2902 524.017 0.273438 537.607 0.273439L637.393 0.273443ZM566.214 96.0591L608.786 96.0592V53.4877L566.214 53.4877V96.0591Z" fill="url(#paint1_linear_2231_49603)"/>
<path d="M171.826 104.541L181.886 94.7843L221.545 55.4158L182.763 55.4158C174.057 55.4158 167 48.3584 167 39.6527V16.0382C167 7.33251 174.057 0.275139 182.763 0.275035L300.237 0.273627C308.942 0.273522 316 7.33094 316 16.0368V33.8278C316 38.013 314.336 42.0263 311.374 44.9832L262.263 94.0141H300.322C309.041 94.0141 316.104 101.092 316.085 109.811L316.034 133.544C316.015 142.237 308.963 149.273 300.271 149.273H182.8C174.095 149.273 167.037 142.216 167.037 133.51V115.857C167.037 111.592 168.765 107.51 171.826 104.541Z" fill="url(#paint2_linear_2231_49603)"/>
<path d="M473 0C481.836 0 489 7.16357 489 16V133C489 141.836 481.836 149 473 149H450C441.164 149 434 141.836 434 133V95.1411L385.203 143.936C378.957 150.185 368.824 150.185 362.578 143.936L346.312 127.673C340.066 121.424 340.066 111.293 346.312 105.045L396.359 55H356C347.164 55 340 47.8364 340 39V16C340 7.16357 347.164 0 356 0H473Z" fill="#D9D9D9"/>
<path d="M473 0C481.836 0 489 7.16357 489 16V133C489 141.836 481.836 149 473 149H450C441.164 149 434 141.836 434 133V95.1411L385.203 143.936C378.957 150.185 368.824 150.185 362.578 143.936L346.312 127.673C340.066 121.424 340.066 111.293 346.312 105.045L396.359 55H356C347.164 55 340 47.8364 340 39V16C340 7.16357 347.164 0 356 0H473Z" fill="url(#paint3_linear_2231_49603)"/>
<defs>
<linearGradient id="paint0_linear_2231_49603" x1="74.5" y1="0.273438" x2="74.5" y2="149.273" gradientUnits="userSpaceOnUse">
<stop stop-color="#F86969"/>
<stop offset="1" stop-color="#FBA5A5"/>
</linearGradient>
<linearGradient id="paint1_linear_2231_49603" x1="587.5" y1="0.273438" x2="587.5" y2="149.273" gradientUnits="userSpaceOnUse">
<stop stop-color="#F86969"/>
<stop offset="1" stop-color="#FBA5A5"/>
</linearGradient>
<linearGradient id="paint2_linear_2231_49603" x1="242" y1="0.273438" x2="242" y2="149.273" gradientUnits="userSpaceOnUse">
<stop stop-color="#F86969"/>
<stop offset="1" stop-color="#FBA5A5"/>
</linearGradient>
<linearGradient id="paint3_linear_2231_49603" x1="414.94" y1="0" x2="414.94" y2="149" gradientUnits="userSpaceOnUse">
<stop stop-color="#F86969"/>
<stop offset="1" stop-color="#FBA5A5"/>
</linearGradient>
</defs>
</svg>
