<svg width="835" height="150" viewBox="0 0 835 150" fill="none" xmlns="http://www.w3.org/2000/svg">
<g clip-path="url(#clip0_2231_49593)">
<circle cx="71.5003" cy="78.7059" r="63.0882" fill="url(#paint0_linear_2231_49593)"/>
<path d="M43.3713 9.45379C44.7263 5.79207 49.9054 5.79206 51.2603 9.45378L54.855 19.1681C56.5589 23.7731 60.1896 27.4038 64.7946 29.1077L74.5089 32.7024C78.1706 34.0573 78.1707 39.2364 74.5089 40.5914L64.7946 44.186C60.1896 45.89 56.5589 49.5207 54.855 54.1256L51.2603 63.84C49.9054 67.5017 44.7263 67.5017 43.3713 63.84L39.7767 54.1256C38.0727 49.5207 34.442 45.89 29.8371 44.186L20.1227 40.5914C16.461 39.2364 16.461 34.0574 20.1227 32.7024L29.8371 29.1078C34.442 27.4038 38.0727 23.7731 39.7767 19.1682L43.3713 9.45379Z" fill="#18491D"/>
</g>
<path fill-rule="evenodd" clip-rule="evenodd" d="M297.393 0.273443C310.983 0.273444 322 11.2902 322 24.8801V124.667C322 138.257 310.983 149.273 297.393 149.273H197.607C184.017 149.273 173 138.257 173 124.667L173 24.8801C173 11.2902 184.017 0.273438 197.607 0.273439L297.393 0.273443ZM226.214 96.0591L268.786 96.0592V53.4877L226.214 53.4877V96.0591Z" fill="url(#paint1_linear_2231_49593)"/>
<path fill-rule="evenodd" clip-rule="evenodd" d="M810.393 0.273443C823.983 0.273444 835 11.2902 835 24.8801V124.667C835 138.257 823.983 149.273 810.393 149.273H710.607C697.017 149.273 686 138.257 686 124.667L686 24.8801C686 11.2902 697.017 0.273438 710.607 0.273439L810.393 0.273443ZM739.214 96.0591L781.786 96.0592V53.4877L739.214 53.4877V96.0591Z" fill="url(#paint2_linear_2231_49593)"/>
<path d="M344.826 104.541L354.886 94.7843L394.545 55.4158L355.763 55.4158C347.057 55.4158 340 48.3584 340 39.6527V16.0382C340 7.33251 347.057 0.275139 355.763 0.275035L473.237 0.273627C481.942 0.273522 489 7.33094 489 16.0368V33.8278C489 38.013 487.336 42.0263 484.374 44.9832L435.263 94.0141H473.322C482.041 94.0141 489.104 101.092 489.085 109.811L489.034 133.544C489.015 142.237 481.963 149.273 473.271 149.273H355.8C347.095 149.273 340.037 142.216 340.037 133.51V115.857C340.037 111.592 341.765 107.51 344.826 104.541Z" fill="url(#paint3_linear_2231_49593)"/>
<path d="M646 0C654.836 0 662 7.16357 662 16V133C662 141.836 654.836 149 646 149H623C614.164 149 607 141.836 607 133V95.1411L558.203 143.936C551.957 150.185 541.824 150.185 535.578 143.936L519.312 127.673C513.066 121.424 513.066 111.293 519.312 105.045L569.359 55H529C520.164 55 513 47.8364 513 39V16C513 7.16357 520.164 0 529 0H646Z" fill="#D9D9D9"/>
<path d="M646 0C654.836 0 662 7.16357 662 16V133C662 141.836 654.836 149 646 149H623C614.164 149 607 141.836 607 133V95.1411L558.203 143.936C551.957 150.185 541.824 150.185 535.578 143.936L519.312 127.673C513.066 121.424 513.066 111.293 519.312 105.045L569.359 55H529C520.164 55 513 47.8364 513 39V16C513 7.16357 520.164 0 529 0H646Z" fill="url(#paint4_linear_2231_49593)"/>
<defs>
<linearGradient id="paint0_linear_2231_49593" x1="71.873" y1="15.6177" x2="71.873" y2="141.794" gradientUnits="userSpaceOnUse">
<stop stop-color="#F86969"/>
<stop offset="1" stop-color="#EF3E3E"/>
</linearGradient>
<linearGradient id="paint1_linear_2231_49593" x1="247.5" y1="0.273438" x2="247.5" y2="149.273" gradientUnits="userSpaceOnUse">
<stop stop-color="#F86969"/>
<stop offset="1" stop-color="#FBA5A5"/>
</linearGradient>
<linearGradient id="paint2_linear_2231_49593" x1="760.5" y1="0.273438" x2="760.5" y2="149.273" gradientUnits="userSpaceOnUse">
<stop stop-color="#F86969"/>
<stop offset="1" stop-color="#FBA5A5"/>
</linearGradient>
<linearGradient id="paint3_linear_2231_49593" x1="415" y1="0.273438" x2="415" y2="149.273" gradientUnits="userSpaceOnUse">
<stop stop-color="#F86969"/>
<stop offset="1" stop-color="#FBA5A5"/>
</linearGradient>
<linearGradient id="paint4_linear_2231_49593" x1="587.94" y1="0" x2="587.94" y2="149" gradientUnits="userSpaceOnUse">
<stop stop-color="#F86969"/>
<stop offset="1" stop-color="#FBA5A5"/>
</linearGradient>
<clipPath id="clip0_2231_49593">
<rect width="143" height="143" fill="white" transform="translate(0 3)"/>
</clipPath>
</defs>
</svg>
