<svg width="25" height="24" viewBox="0 0 25 24" fill="none" xmlns="http://www.w3.org/2000/svg">
<path d="M20.98 12.2112C20.98 11.5833 20.9238 10.9795 20.8194 10.3999H12.5V13.8253H17.2539C17.0492 14.9322 16.4268 15.8701 15.4913 16.498V18.7199H18.3461C20.0164 17.1783 20.98 14.9081 20.98 12.2112Z" fill="#4285F4"/>
<path d="M12.4734 20.8001C14.8341 20.8001 16.8133 20.0041 18.2599 18.6466L15.4342 16.4163C14.6513 16.9496 13.6498 17.2647 12.4734 17.2647C10.1961 17.2647 8.26859 15.7011 7.58104 13.6001H4.65994V15.9031C6.09863 18.8082 9.0555 20.8001 12.4734 20.8001Z" fill="#34A853"/>
<path d="M7.5401 13.6923C7.36574 13.1579 7.26667 12.587 7.26667 12C7.26667 11.413 7.36574 10.8421 7.5401 10.3077V8H4.62741C4.01713 9.24118 3.69957 10.611 3.7001 12C3.7001 13.4372 4.03695 14.7976 4.62741 16L7.5401 13.6923Z" fill="#FBBC05"/>
<path d="M12.5285 6.7353C13.8213 6.7353 14.9819 7.18379 15.8945 8.0646L18.4199 5.5151C16.8951 4.08076 14.9019 3.19995 12.5285 3.19995C9.08652 3.19995 6.10878 5.19187 4.65994 8.09692L7.60165 10.4C8.29406 8.29894 10.2352 6.7353 12.5285 6.7353Z" fill="#EA4335"/>
</svg>
