<svg width="24" height="24" viewBox="0 0 24 24" fill="none" xmlns="http://www.w3.org/2000/svg">
<path d="M11.995 6C8.12277 6 5 8.49819 5 11.531C5 13.4996 6.29907 15.2234 8.24768 16.2077L7.58815 18.6709C7.57572 18.7079 7.5738 18.7475 7.58263 18.7854C7.59145 18.8234 7.61067 18.8581 7.63812 18.8858C7.67814 18.9211 7.72964 18.9406 7.78301 18.9407C7.82726 18.9372 7.86925 18.9197 7.90293 18.8908L10.7409 16.9771C11.1598 17.035 11.5821 17.065 12.005 17.067C15.8722 17.067 19 14.5689 19 11.531C19 8.49319 15.8622 6 11.995 6Z" fill="black"/>
</svg>
