<svg width="16" height="16" viewBox="0 0 16 16" fill="none" xmlns="http://www.w3.org/2000/svg">
<path d="M0 8C0 3.58172 3.58172 0 8 0C12.4183 0 16 3.58172 16 8C16 12.4183 12.4183 16 8 16C3.58172 16 0 12.4183 0 8Z" fill="#C0C0C0"/>
<path d="M4.70457 7.54455C4.45297 7.54453 4.24899 7.74847 4.24897 8.00006C4.24894 8.25166 4.45288 8.45564 4.70448 8.45566L7.5444 8.45594L7.5444 11.2955C7.5444 11.5471 7.74836 11.7511 7.99996 11.7511C8.25155 11.7511 8.45551 11.5471 8.45551 11.2955V8.45566L11.2954 8.45566C11.547 8.45566 11.7509 8.25171 11.7509 8.00011C11.7509 7.74851 11.547 7.54455 11.2954 7.54455H8.45524L8.45551 4.70472C8.45553 4.45312 8.2516 4.24915 8 4.24912C7.7484 4.2491 7.54442 4.45304 7.5444 4.70463L7.54413 7.54482L4.70457 7.54455Z" fill="#F6F6F6" stroke="#F6F6F6" stroke-width="0.2" stroke-linecap="round" stroke-linejoin="round"/>
</svg>
