<svg width="18" height="18" viewBox="0 0 18 18" fill="none" xmlns="http://www.w3.org/2000/svg">
<rect x="1" y="1" width="16" height="16" rx="8" fill="white"/>
<rect x="1" y="1" width="16" height="16" rx="8" stroke="#F86969"/>
<path d="M5.70473 8.39406C5.3703 8.39403 5.09915 8.66512 5.09912 8.99956C5.09909 9.334 5.37018 9.60514 5.70462 9.60518L8.39455 9.60543L8.39455 12.2951C8.39455 12.6295 8.66567 12.9006 9.00011 12.9006C9.33455 12.9006 9.60566 12.6295 9.60566 12.2951V9.60518L12.2955 9.60518C12.63 9.60518 12.9011 9.33406 12.9011 8.99962C12.9011 8.66518 12.63 8.39406 12.2955 8.39406H9.60541L9.60566 5.70425C9.6057 5.36981 9.33461 5.09866 9.00017 5.09863C8.66573 5.0986 8.39458 5.36969 8.39455 5.70413L8.3943 8.39432L5.70473 8.39406Z" fill="#F86969" stroke="#F86969" stroke-width="0.5" stroke-linecap="round" stroke-linejoin="round"/>
</svg>
