<svg width="16" height="16" viewBox="0 0 16 16" fill="none" xmlns="http://www.w3.org/2000/svg">
<path d="M0 8C0 3.58172 3.58172 0 8 0C12.4183 0 16 3.58172 16 8C16 12.4183 12.4183 16 8 16C3.58172 16 0 12.4183 0 8Z" fill="#1C1616"/>
<path d="M7.1123 8.4453C7.30317 8.70047 7.54669 8.9116 7.82633 9.06438C8.10597 9.21716 8.4152 9.30802 8.73304 9.33078C9.05088 9.35354 9.3699 9.30768 9.66846 9.19631C9.96702 9.08494 10.2381 8.91066 10.4634 8.6853L11.7967 7.35196C12.2015 6.93285 12.4255 6.37151 12.4205 5.78885C12.4154 5.20619 12.1817 4.64883 11.7697 4.23681C11.3577 3.82479 10.8003 3.59108 10.2176 3.58602C9.63498 3.58096 9.07364 3.80495 8.65453 4.20974L7.89008 4.96974" stroke="#F6F6F6" stroke-width="0.8" stroke-linecap="round" stroke-linejoin="round"/>
<path d="M8.8854 7.55522C8.69453 7.30005 8.45102 7.08892 8.17137 6.93614C7.89173 6.78336 7.5825 6.6925 7.26466 6.66974C6.94682 6.64698 6.6278 6.69284 6.32924 6.80421C6.03068 6.91558 5.75957 7.08986 5.53429 7.31522L4.20095 8.64855C3.79616 9.06767 3.57217 9.62901 3.57723 10.2117C3.5823 10.7943 3.816 11.3517 4.22802 11.7637C4.64004 12.1757 5.1974 12.4094 5.78006 12.4145C6.36272 12.4196 6.92406 12.1956 7.34317 11.7908L8.10317 11.0308" stroke="#F6F6F6" stroke-width="0.8" stroke-linecap="round" stroke-linejoin="round"/>
</svg>
