<svg width="24" height="24" viewBox="0 0 24 24" fill="none" xmlns="http://www.w3.org/2000/svg">
<path d="M19.3696 20.7857L15.8296 17.2587C15.2342 17.532 14.6142 17.724 13.9696 17.8347C13.3249 17.9453 12.6682 18.0007 11.9996 18.0007C10.0222 18.0007 8.20823 17.4807 6.55756 16.4407C4.9069 15.4007 3.5819 14.032 2.58256 12.3347C2.49923 12.198 2.4399 12.06 2.40456 11.9207C2.36923 11.7813 2.35156 11.6413 2.35156 11.5007C2.35156 11.36 2.37223 11.2167 2.41356 11.0707C2.4549 10.9247 2.51756 10.7897 2.60156 10.6657C3.03223 9.99034 3.4879 9.34101 3.96856 8.71767C4.44923 8.09501 5.00956 7.54834 5.64956 7.07767L3.20956 4.63167C3.11623 4.53834 3.06623 4.42434 3.05956 4.28967C3.0529 4.15634 3.1049 4.03434 3.21556 3.92367C3.32156 3.81701 3.43923 3.76367 3.56856 3.76367C3.6979 3.76367 3.8159 3.81701 3.92256 3.92367L20.0766 20.0777C20.1699 20.171 20.2209 20.2847 20.2296 20.4187C20.2382 20.5527 20.1872 20.6747 20.0766 20.7847C19.9699 20.8913 19.8519 20.9447 19.7226 20.9447C19.5932 20.9447 19.4752 20.8913 19.3686 20.7847M11.9996 15.1547C12.2596 15.1547 12.5082 15.1367 12.7456 15.1007C12.9829 15.0647 13.2106 14.9833 13.4286 14.8567L8.64356 10.0707C8.52956 10.2887 8.45123 10.5163 8.40856 10.7537C8.3659 10.991 8.3449 11.2397 8.34556 11.4997C8.34556 12.519 8.6999 13.3827 9.40856 14.0907C10.1172 14.7987 10.9809 15.1533 11.9996 15.1547ZM11.9996 5.00067C13.9896 5.00067 15.8176 5.52167 17.4836 6.56367C19.1496 7.60567 20.4752 8.98801 21.4606 10.7107C21.5312 10.8307 21.5876 10.9573 21.6296 11.0907C21.6716 11.224 21.6922 11.3607 21.6916 11.5007C21.6909 11.6407 21.6709 11.7773 21.6316 11.9107C21.5922 12.044 21.5372 12.1707 21.4666 12.2907C21.1759 12.8307 20.8506 13.3373 20.4906 13.8107C20.1312 14.284 19.7292 14.73 19.2846 15.1487C19.1026 15.3307 18.8852 15.4133 18.6326 15.3967C18.3792 15.38 18.1619 15.2807 17.9806 15.0987L15.7876 12.9257C15.6969 12.835 15.6349 12.7327 15.6016 12.6187C15.5682 12.5047 15.5636 12.384 15.5876 12.2567C15.6162 12.13 15.6342 12.005 15.6416 11.8817C15.6489 11.7583 15.6529 11.6313 15.6536 11.5007C15.6536 10.4813 15.2992 9.61767 14.5906 8.90967C13.8819 8.20167 13.0182 7.84734 11.9996 7.84667C11.8689 7.84667 11.7452 7.85367 11.6286 7.86767C11.5119 7.88167 11.3966 7.90301 11.2826 7.93167C11.1546 7.96901 11.0262 7.971 10.8976 7.93767C10.7696 7.90434 10.6599 7.84201 10.5686 7.75067L9.53256 6.71467C9.27923 6.46134 9.19423 6.165 9.27756 5.82567C9.36023 5.48567 9.5779 5.27034 9.93056 5.17967C10.2706 5.10901 10.6112 5.06167 10.9526 5.03767C11.2939 5.01367 11.6429 5.00134 11.9996 5.00067ZM13.8976 9.57367C14.1196 9.80301 14.2996 10.0663 14.4376 10.3637C14.5756 10.661 14.6609 10.9703 14.6936 11.2917C14.7102 11.399 14.6699 11.4743 14.5726 11.5177C14.4752 11.5617 14.3829 11.54 14.2956 11.4527L12.0536 9.22967C11.9662 9.14234 11.9452 9.05 11.9906 8.95267C12.0366 8.85534 12.1132 8.80667 12.2206 8.80667C12.5506 8.82667 12.8552 8.90134 13.1346 9.03067C13.4139 9.15934 13.6682 9.34034 13.8976 9.57367Z" fill="#C0C0C0"/>
</svg>
