<svg width="24" height="24" viewBox="0 0 24 24" fill="none" xmlns="http://www.w3.org/2000/svg">
<path d="M12 16C13.25 16 14.3127 15.5627 15.188 14.688C16.0633 13.8133 16.5007 12.7507 16.5 11.5C16.4993 10.2493 16.062 9.187 15.188 8.313C14.314 7.439 13.2513 7.00133 12 7C10.7487 6.99867 9.68633 7.43633 8.813 8.313C7.93967 9.18967 7.502 10.252 7.5 11.5C7.498 12.748 7.93567 13.8107 8.813 14.688C9.69033 15.5653 10.7527 16.0027 12 16ZM12 14.2C11.25 14.2 10.6127 13.9373 10.088 13.412C9.56333 12.8867 9.30067 12.2493 9.3 11.5C9.29933 10.7507 9.562 10.1133 10.088 9.588C10.614 9.06267 11.2513 8.8 12 8.8C12.7487 8.8 13.3863 9.06267 13.913 9.588C14.4397 10.1133 14.702 10.7507 14.7 11.5C14.698 12.2493 14.4357 12.887 13.913 13.413C13.3903 13.939 12.7527 14.2013 12 14.2ZM12 19C9.56667 19 7.35 18.321 5.35 16.963C3.35 15.605 1.9 13.784 1 11.5C1.9 9.21667 3.35 7.396 5.35 6.038C7.35 4.68 9.56667 4.00067 12 4C14.4333 3.99933 16.65 4.67867 18.65 6.038C20.65 7.39733 22.1 9.218 23 11.5C22.1 13.7833 20.65 15.6043 18.65 16.963C16.65 18.3217 14.4333 19.0007 12 19Z" fill="#1C1616"/>
</svg>
