<svg width="20" height="18" viewBox="0 0 20 18" fill="none" xmlns="http://www.w3.org/2000/svg">
<path d="M17.3696 17.7857L13.8296 14.2587C13.2342 14.532 12.6142 14.724 11.9696 14.8347C11.3249 14.9453 10.6682 15.0007 9.99956 15.0007C8.02223 15.0007 6.20823 14.4807 4.55756 13.4407C2.9069 12.4007 1.5819 11.032 0.582562 9.33467C0.499229 9.198 0.439896 9.06001 0.404562 8.92067C0.369229 8.78134 0.351562 8.64134 0.351562 8.50067C0.351562 8.36001 0.372229 8.21667 0.413563 8.07067C0.454896 7.92467 0.517563 7.78967 0.601562 7.66567C1.03223 6.99034 1.4879 6.34101 1.96856 5.71767C2.44923 5.09501 3.00956 4.54834 3.64956 4.07767L1.20956 1.63167C1.11623 1.53834 1.06623 1.42434 1.05956 1.28967C1.0529 1.15634 1.1049 1.03434 1.21556 0.923672C1.32156 0.817005 1.43923 0.763672 1.56856 0.763672C1.6979 0.763672 1.8159 0.817005 1.92256 0.923672L18.0766 17.0777C18.1699 17.171 18.2209 17.2847 18.2296 17.4187C18.2382 17.5527 18.1872 17.6747 18.0766 17.7847C17.9699 17.8913 17.8519 17.9447 17.7226 17.9447C17.5932 17.9447 17.4752 17.8913 17.3686 17.7847M9.99956 12.1547C10.2596 12.1547 10.5082 12.1367 10.7456 12.1007C10.9829 12.0647 11.2106 11.9833 11.4286 11.8567L6.64356 7.07067C6.52956 7.28867 6.45123 7.51634 6.40856 7.75367C6.3659 7.99101 6.3449 8.23967 6.34556 8.49967C6.34556 9.519 6.6999 10.3827 7.40856 11.0907C8.11723 11.7987 8.9809 12.1533 9.99956 12.1547ZM9.99956 2.00067C11.9896 2.00067 13.8176 2.52167 15.4836 3.56367C17.1496 4.60567 18.4752 5.98801 19.4606 7.71067C19.5312 7.83067 19.5876 7.95734 19.6296 8.09067C19.6716 8.22401 19.6922 8.36067 19.6916 8.50067C19.6909 8.64067 19.6709 8.77734 19.6316 8.91067C19.5922 9.044 19.5372 9.17067 19.4666 9.29067C19.1759 9.83067 18.8506 10.3373 18.4906 10.8107C18.1312 11.284 17.7292 11.73 17.2846 12.1487C17.1026 12.3307 16.8852 12.4133 16.6326 12.3967C16.3792 12.38 16.1619 12.2807 15.9806 12.0987L13.7876 9.92567C13.6969 9.83501 13.6349 9.73267 13.6016 9.61867C13.5682 9.50467 13.5636 9.38401 13.5876 9.25667C13.6162 9.13 13.6342 9.005 13.6416 8.88167C13.6489 8.75834 13.6529 8.63134 13.6536 8.50067C13.6536 7.48134 13.2992 6.61767 12.5906 5.90967C11.8819 5.20167 11.0182 4.84734 9.99956 4.84667C9.8689 4.84667 9.74523 4.85367 9.62856 4.86767C9.5119 4.88167 9.39656 4.90301 9.28256 4.93167C9.15456 4.96901 9.02623 4.971 8.89756 4.93767C8.76956 4.90434 8.6599 4.84201 8.56856 4.75067L7.53256 3.71467C7.27923 3.46134 7.19423 3.165 7.27756 2.82567C7.36023 2.48567 7.5779 2.27034 7.93056 2.17967C8.27056 2.10901 8.61123 2.06167 8.95256 2.03767C9.2939 2.01367 9.6429 2.00134 9.99956 2.00067ZM11.8976 6.57367C12.1196 6.80301 12.2996 7.06634 12.4376 7.36367C12.5756 7.66101 12.6609 7.97034 12.6936 8.29167C12.7102 8.39901 12.6699 8.47434 12.5726 8.51767C12.4752 8.56167 12.3829 8.54 12.2956 8.45267L10.0536 6.22967C9.96623 6.14234 9.94523 6.05 9.99056 5.95267C10.0366 5.85534 10.1132 5.80667 10.2206 5.80667C10.5506 5.82667 10.8552 5.90134 11.1346 6.03067C11.4139 6.15934 11.6682 6.34034 11.8976 6.57367Z" fill="#1C1616"/>
</svg>
