<svg width="18" height="18" viewBox="0 0 18 18" fill="none" xmlns="http://www.w3.org/2000/svg">
<path d="M0 9C0 4.02944 4.02944 0 9 0C13.9706 0 18 4.02944 18 9C18 13.9706 13.9706 18 9 18C4.02944 18 0 13.9706 0 9Z" fill="#D9EDFF"/>
<path d="M12 4.875H6C5.39062 4.875 4.99219 5.20312 4.875 5.8125L4.125 9.375V12C4.12587 12.2981 4.24467 12.5837 4.45546 12.7945C4.66625 13.0053 4.9519 13.1241 5.25 13.125H12.75C13.0481 13.1241 13.3337 13.0053 13.5445 12.7945C13.7553 12.5837 13.8741 12.2981 13.875 12V9.375L13.125 5.8125C13.0078 5.17969 12.5859 4.875 12 4.875Z" stroke="#0084F4" stroke-width="0.9" stroke-linejoin="round"/>
<path d="M4.125 9.375H7.5C7.5 9.77282 7.65804 10.1544 7.93934 10.4357C8.22064 10.717 8.60218 10.875 9 10.875C9.39782 10.875 9.77936 10.717 10.0607 10.4357C10.342 10.1544 10.5 9.77282 10.5 9.375H13.875" stroke="#0084F4" stroke-width="0.9" stroke-linecap="round" stroke-linejoin="round"/>
</svg>
