<svg width="14" height="14" viewBox="0 0 14 14" fill="none" xmlns="http://www.w3.org/2000/svg">
<path d="M3.35413 0.583496C3.47016 0.583496 3.58144 0.62959 3.66349 0.711637C3.74553 0.793684 3.79163 0.904964 3.79163 1.021V2.10016L4.79496 1.8995C5.75794 1.70761 6.75591 1.7992 7.66788 2.16316L7.78688 2.21041C8.69741 2.5747 9.69957 2.64287 10.651 2.40525C10.7542 2.37945 10.8619 2.37751 10.966 2.39958C11.0701 2.42164 11.1677 2.46713 11.2516 2.53258C11.3354 2.59804 11.4032 2.68174 11.4499 2.77733C11.4965 2.87292 11.5208 2.97788 11.5208 3.08425V7.38166C11.5208 7.75733 11.2647 8.08516 10.9001 8.17616L10.7753 8.20708C9.74309 8.46511 8.65583 8.39143 7.66788 7.9965C6.75609 7.63265 5.75834 7.54106 4.79554 7.73283L3.79163 7.9335V12.6877C3.79163 12.8037 3.74553 12.915 3.66349 12.997C3.58144 13.0791 3.47016 13.1252 3.35413 13.1252C3.23809 13.1252 3.12681 13.0791 3.04477 12.997C2.96272 12.915 2.91663 12.8037 2.91663 12.6877V1.021C2.91663 0.904964 2.96272 0.793684 3.04477 0.711637C3.12681 0.62959 3.23809 0.583496 3.35413 0.583496Z" fill="#C0C0C0"/>
</svg>
