<svg width="18" height="18" viewBox="0 0 18 18" fill="none" xmlns="http://www.w3.org/2000/svg">
<rect width="18" height="18" rx="6" fill="#F6F6F6"/>
<path d="M7.9999 6.20366C7.9999 6.56154 8.29002 6.85166 8.6479 6.85166C9.00578 6.85166 9.2959 6.56154 9.2959 6.20366C9.2959 5.84578 9.00578 5.55566 8.6479 5.55566C8.29002 5.55566 7.9999 5.84578 7.9999 6.20366Z" fill="#575151"/>
<path d="M7.9999 8.99956C7.9999 9.35744 8.29002 9.64756 8.6479 9.64756C9.00578 9.64756 9.2959 9.35744 9.2959 8.99956C9.2959 8.64168 9.00578 8.35156 8.6479 8.35156C8.29002 8.35156 7.9999 8.64168 7.9999 8.99956Z" fill="#575151"/>
<path d="M7.9999 11.7959C7.9999 12.1538 8.29002 12.4439 8.6479 12.4439C9.00578 12.4439 9.2959 12.1538 9.2959 11.7959C9.2959 11.4381 9.00578 11.1479 8.6479 11.1479C8.29002 11.1479 7.9999 11.4381 7.9999 11.7959Z" fill="#575151"/>
</svg>
