<svg width="24" height="24" viewBox="0 0 24 24" fill="none" xmlns="http://www.w3.org/2000/svg">
<rect x="3" y="3" width="18" height="18" rx="6" fill="#575151"/>
<path d="M11.2736 7.864C11.2736 8.34117 11.6604 8.728 12.1376 8.728C12.6148 8.728 13.0016 8.34117 13.0016 7.864C13.0016 7.38683 12.6148 7 12.1376 7C11.6604 7 11.2736 7.38683 11.2736 7.864Z" fill="#F6F6F6"/>
<path d="M11.2736 11.5906C11.2736 12.0677 11.6604 12.4546 12.1376 12.4546C12.6148 12.4546 13.0016 12.0677 13.0016 11.5906C13.0016 11.1134 12.6148 10.7266 12.1376 10.7266C11.6604 10.7266 11.2736 11.1134 11.2736 11.5906Z" fill="#F6F6F6"/>
<path d="M11.2736 15.321C11.2736 15.7982 11.6604 16.185 12.1376 16.185C12.6148 16.185 13.0016 15.7982 13.0016 15.321C13.0016 14.8439 12.6148 14.457 12.1376 14.457C11.6604 14.457 11.2736 14.8439 11.2736 15.321Z" fill="#F6F6F6"/>
</svg>
