<svg width="18" height="18" viewBox="0 0 18 18" fill="none" xmlns="http://www.w3.org/2000/svg">
<path d="M0 9C0 4.02944 4.02944 0 9 0C13.9706 0 18 4.02944 18 9C18 13.9706 13.9706 18 9 18C4.02944 18 0 13.9706 0 9Z" fill="#F4FFF5"/>
<g clip-path="url(#clip0_2363_12411)">
<path d="M7.99609 9.49998C8.21082 9.78705 8.48477 10.0246 8.79937 10.1965C9.11397 10.3683 9.46185 10.4705 9.81942 10.4961C10.177 10.5218 10.5359 10.4702 10.8718 10.3449C11.2076 10.2196 11.5127 10.0235 11.7661 9.76998L13.2661 8.26998C13.7215 7.79848 13.9735 7.16697 13.9678 6.51148C13.9621 5.85599 13.6992 5.22896 13.2356 4.76544C12.7721 4.30192 12.1451 4.03899 11.4896 4.0333C10.8341 4.0276 10.2026 4.27959 9.73109 4.73498L8.87109 5.58998" stroke="#00C48C" stroke-width="0.9" stroke-linecap="round" stroke-linejoin="round"/>
<path d="M9.99522 8.50011C9.78049 8.21305 9.50654 7.97552 9.19194 7.80364C8.87735 7.63176 8.52946 7.52955 8.17189 7.50395C7.81432 7.47834 7.45542 7.52993 7.11954 7.65522C6.78366 7.78051 6.47866 7.97658 6.22522 8.23011L4.72522 9.73011C4.26982 10.2016 4.01784 10.8331 4.02353 11.4886C4.02923 12.1441 4.29215 12.7711 4.75567 13.2347C5.21919 13.6982 5.84622 13.9611 6.50171 13.9668C7.15721 13.9725 7.78871 13.7205 8.26022 13.2651L9.11522 12.4101" stroke="#00C48C" stroke-width="0.9" stroke-linecap="round" stroke-linejoin="round"/>
</g>
<defs>
<clipPath id="clip0_2363_12411">
<rect width="12" height="12" fill="white" transform="translate(3 3)"/>
</clipPath>
</defs>
</svg>
