<svg width="24" height="24" viewBox="0 0 24 24" fill="none" xmlns="http://www.w3.org/2000/svg">
<path d="M10.839 7.08C10.839 7.67647 11.3226 8.16 11.919 8.16C12.5155 8.16 12.999 7.67647 12.999 7.08C12.999 6.48353 12.5155 6 11.919 6C11.3226 6 10.839 6.48353 10.839 7.08Z" fill="#1C1616"/>
<path d="M10.839 11.7402C10.839 12.3366 11.3226 12.8202 11.919 12.8202C12.5155 12.8202 12.999 12.3366 12.999 11.7402C12.999 11.1437 12.5155 10.6602 11.919 10.6602C11.3226 10.6602 10.839 11.1437 10.839 11.7402Z" fill="#1C1616"/>
<path d="M10.839 16.4003C10.839 16.9968 11.3226 17.4803 11.919 17.4803C12.5155 17.4803 12.999 16.9968 12.999 16.4003C12.999 15.8038 12.5155 15.3203 11.919 15.3203C11.3226 15.3203 10.839 15.8038 10.839 16.4003Z" fill="#1C1616"/>
</svg>
