<svg width="18" height="18" viewBox="0 0 18 18" fill="none" xmlns="http://www.w3.org/2000/svg">
<path d="M0 9C0 4.02944 4.02944 0 9 0C13.9706 0 18 4.02944 18 9C18 13.9706 13.9706 18 9 18C4.02944 18 0 13.9706 0 9Z" fill="#FFF0F0"/>
<path d="M7.5 9.5H10.5M7.5 11.5H9M5 5V13C5 13.2652 5.10536 13.5196 5.29289 13.7071C5.48043 13.8946 5.73478 14 6 14H12C12.2652 14 12.5196 13.8946 12.7071 13.7071C12.8946 13.5196 13 13.2652 13 13V7.171C13 7.03778 12.9733 6.90591 12.9217 6.78312C12.87 6.66034 12.7943 6.54912 12.699 6.456L10.479 4.285C10.2922 4.10233 10.0413 4.00003 9.78 4H6C5.73478 4 5.48043 4.10536 5.29289 4.29289C5.10536 4.48043 5 4.73478 5 5Z" stroke="#E45555" stroke-width="0.9" stroke-linecap="round" stroke-linejoin="round"/>
<path d="M10 4V6C10 6.26522 10.1054 6.51957 10.2929 6.70711C10.4804 6.89464 10.7348 7 11 7H13" stroke="#E45555" stroke-width="0.9" stroke-linejoin="round"/>
</svg>
