<svg width="18" height="18" viewBox="0 0 18 18" fill="none" xmlns="http://www.w3.org/2000/svg">
<path d="M0 9C0 4.02944 4.02944 0 9 0C13.9706 0 18 4.02944 18 9C18 13.9706 13.9706 18 9 18C4.02944 18 0 13.9706 0 9Z" fill="#FFF0F0"/>
<rect x="4.65078" y="4.64922" width="8.7" height="8.7" rx="1.83571" stroke="#E45555" stroke-width="0.9"/>
<mask id="path-3-outside-1_2877_88091" maskUnits="userSpaceOnUse" x="5.26639" y="5.42578" width="7" height="7" fill="black">
<rect fill="white" x="5.26639" y="5.42578" width="7" height="7"/>
<path d="M8.55795 7.01181C8.62233 6.94744 8.6585 6.86012 8.6585 6.76907C8.6585 6.67803 8.62233 6.59071 8.55795 6.52633C8.49357 6.46195 8.40626 6.42578 8.31521 6.42578C8.22416 6.42578 8.13685 6.46195 8.07247 6.52633L7.10424 7.49456L6.83201 7.24633C6.76437 7.18852 6.6769 7.15926 6.58809 7.16475C6.49928 7.17024 6.41609 7.21004 6.35608 7.27575C6.29607 7.34145 6.26396 7.42791 6.26653 7.51685C6.2691 7.60579 6.30614 7.69025 6.36984 7.75239L6.88413 8.2221C6.94929 8.28143 7.03479 8.31339 7.12289 8.31134C7.21099 8.3093 7.29493 8.27341 7.35727 8.21113L8.55795 7.01181ZM8.55795 9.9549C8.52611 9.92297 8.48827 9.89764 8.44662 9.88035C8.40496 9.86307 8.36031 9.85417 8.31521 9.85417C8.27011 9.85417 8.22546 9.86307 8.18381 9.88035C8.14215 9.89764 8.10432 9.92297 8.07247 9.9549L7.10424 10.9231L6.83201 10.6749C6.76437 10.6171 6.6769 10.5878 6.58809 10.5933C6.49928 10.5988 6.41609 10.6386 6.35608 10.7043C6.29607 10.77 6.26396 10.8565 6.26653 10.9454C6.2691 11.0344 6.30614 11.1188 6.36984 11.181L6.88413 11.6507C6.9492 11.7101 7.03466 11.7422 7.12276 11.7403C7.21086 11.7383 7.29484 11.7026 7.35727 11.6404L8.55727 10.4404C8.62154 10.3761 8.65765 10.2889 8.65765 10.198C8.65765 10.1071 8.62154 10.0199 8.55727 9.95559M9.68664 10.3691C9.59571 10.3691 9.5085 10.4052 9.4442 10.4695C9.3799 10.5338 9.34378 10.621 9.34378 10.7119C9.34378 10.8029 9.3799 10.8901 9.4442 10.9544C9.5085 11.0187 9.59571 11.0548 9.68664 11.0548H11.4009C11.4919 11.0548 11.5791 11.0187 11.6434 10.9544C11.7077 10.8901 11.7438 10.8029 11.7438 10.7119C11.7438 10.621 11.7077 10.5338 11.6434 10.4695C11.5791 10.4052 11.4919 10.3691 11.4009 10.3691H9.68664ZM9.34378 7.28336C9.34378 7.37429 9.3799 7.4615 9.4442 7.52579C9.5085 7.59009 9.59571 7.62621 9.68664 7.62621H11.4009C11.4919 7.62621 11.5791 7.59009 11.6434 7.52579C11.7077 7.4615 11.7438 7.37429 11.7438 7.28336C11.7438 7.19243 11.7077 7.10522 11.6434 7.04092C11.5791 6.97662 11.4919 6.9405 11.4009 6.9405H9.68664C9.59571 6.9405 9.5085 6.97662 9.4442 7.04092C9.3799 7.10522 9.34378 7.19243 9.34378 7.28336Z"/>
</mask>
<path d="M8.55795 7.01181C8.62233 6.94744 8.6585 6.86012 8.6585 6.76907C8.6585 6.67803 8.62233 6.59071 8.55795 6.52633C8.49357 6.46195 8.40626 6.42578 8.31521 6.42578C8.22416 6.42578 8.13685 6.46195 8.07247 6.52633L7.10424 7.49456L6.83201 7.24633C6.76437 7.18852 6.6769 7.15926 6.58809 7.16475C6.49928 7.17024 6.41609 7.21004 6.35608 7.27575C6.29607 7.34145 6.26396 7.42791 6.26653 7.51685C6.2691 7.60579 6.30614 7.69025 6.36984 7.75239L6.88413 8.2221C6.94929 8.28143 7.03479 8.31339 7.12289 8.31134C7.21099 8.3093 7.29493 8.27341 7.35727 8.21113L8.55795 7.01181ZM8.55795 9.9549C8.52611 9.92297 8.48827 9.89764 8.44662 9.88035C8.40496 9.86307 8.36031 9.85417 8.31521 9.85417C8.27011 9.85417 8.22546 9.86307 8.18381 9.88035C8.14215 9.89764 8.10432 9.92297 8.07247 9.9549L7.10424 10.9231L6.83201 10.6749C6.76437 10.6171 6.6769 10.5878 6.58809 10.5933C6.49928 10.5988 6.41609 10.6386 6.35608 10.7043C6.29607 10.77 6.26396 10.8565 6.26653 10.9454C6.2691 11.0344 6.30614 11.1188 6.36984 11.181L6.88413 11.6507C6.9492 11.7101 7.03466 11.7422 7.12276 11.7403C7.21086 11.7383 7.29484 11.7026 7.35727 11.6404L8.55727 10.4404C8.62154 10.3761 8.65765 10.2889 8.65765 10.198C8.65765 10.1071 8.62154 10.0199 8.55727 9.95559M9.68664 10.3691C9.59571 10.3691 9.5085 10.4052 9.4442 10.4695C9.3799 10.5338 9.34378 10.621 9.34378 10.7119C9.34378 10.8029 9.3799 10.8901 9.4442 10.9544C9.5085 11.0187 9.59571 11.0548 9.68664 11.0548H11.4009C11.4919 11.0548 11.5791 11.0187 11.6434 10.9544C11.7077 10.8901 11.7438 10.8029 11.7438 10.7119C11.7438 10.621 11.7077 10.5338 11.6434 10.4695C11.5791 10.4052 11.4919 10.3691 11.4009 10.3691H9.68664ZM9.34378 7.28336C9.34378 7.37429 9.3799 7.4615 9.4442 7.52579C9.5085 7.59009 9.59571 7.62621 9.68664 7.62621H11.4009C11.4919 7.62621 11.5791 7.59009 11.6434 7.52579C11.7077 7.4615 11.7438 7.37429 11.7438 7.28336C11.7438 7.19243 11.7077 7.10522 11.6434 7.04092C11.5791 6.97662 11.4919 6.9405 11.4009 6.9405H9.68664C9.59571 6.9405 9.5085 6.97662 9.4442 7.04092C9.3799 7.10522 9.34378 7.19243 9.34378 7.28336Z" fill="#E45555"/>
<path d="M8.55795 7.01181L8.62862 7.08257L8.62866 7.08253L8.55795 7.01181ZM8.07247 6.52633L8.00176 6.45562L8.00176 6.45562L8.07247 6.52633ZM7.10424 7.49456L7.03686 7.56845L7.10743 7.63279L7.17495 7.56527L7.10424 7.49456ZM6.83201 7.24633L6.89942 7.1724L6.89698 7.17031L6.83201 7.24633ZM6.36984 7.75239L6.29998 7.82401L6.3024 7.82622L6.36984 7.75239ZM6.88413 8.2221L6.81669 8.29594L6.8168 8.29604L6.88413 8.2221ZM7.35727 8.21113L7.2866 8.14038L7.28659 8.14038L7.35727 8.21113ZM8.07247 9.9549L8.14318 10.0256L8.14327 10.0255L8.07247 9.9549ZM7.10424 10.9231L7.03686 10.997L7.10743 11.0614L7.17495 10.9938L7.10424 10.9231ZM6.83201 10.6749L6.89942 10.601L6.89698 10.5989L6.83201 10.6749ZM6.36984 11.181L6.29998 11.2526L6.3024 11.2548L6.36984 11.181ZM6.88413 11.6507L6.81669 11.7245L6.8167 11.7245L6.88413 11.6507ZM7.35727 11.6404L7.42784 11.7112L7.42798 11.7111L7.35727 11.6404ZM8.55727 10.4404L8.62798 10.5111L8.62799 10.5111L8.55727 10.4404ZM9.4442 10.4695L9.37349 10.3988L9.4442 10.4695ZM11.6434 10.4695L11.7141 10.3988L11.6434 10.4695ZM8.62866 7.08253C8.7118 6.99939 8.7585 6.88664 8.7585 6.76907H8.5585C8.5585 6.8336 8.53287 6.89548 8.48724 6.9411L8.62866 7.08253ZM8.7585 6.76907C8.7585 6.6515 8.7118 6.53875 8.62866 6.45562L8.48724 6.59704C8.53287 6.64266 8.5585 6.70455 8.5585 6.76907H8.7585ZM8.62866 6.45562C8.54553 6.37248 8.43278 6.32578 8.31521 6.32578V6.52578C8.37974 6.52578 8.44162 6.55141 8.48724 6.59704L8.62866 6.45562ZM8.31521 6.32578C8.19764 6.32578 8.08489 6.37248 8.00176 6.45562L8.14318 6.59704C8.1888 6.55141 8.25069 6.52578 8.31521 6.52578V6.32578ZM8.00176 6.45562L7.03353 7.42385L7.17495 7.56527L8.14318 6.59704L8.00176 6.45562ZM7.17162 7.42066L6.89939 7.17244L6.76463 7.32022L7.03686 7.56845L7.17162 7.42066ZM6.89698 7.17031C6.80962 7.09564 6.69664 7.05785 6.58193 7.06494L6.59426 7.26456C6.65717 7.26067 6.71913 7.28139 6.76704 7.32235L6.89698 7.17031ZM6.58193 7.06494C6.46721 7.07203 6.35975 7.12344 6.28224 7.20831L6.42992 7.34318C6.47242 7.29664 6.53136 7.26845 6.59426 7.26456L6.58193 7.06494ZM6.28224 7.20831C6.20473 7.29317 6.16326 7.40485 6.16657 7.51973L6.36649 7.51396C6.36467 7.45096 6.38742 7.38972 6.42992 7.34318L6.28224 7.20831ZM6.16657 7.51973C6.16989 7.63462 6.21774 7.74372 6.30001 7.82397L6.43967 7.6808C6.39455 7.63679 6.36831 7.57696 6.36649 7.51396L6.16657 7.51973ZM6.3024 7.82622L6.81669 8.29594L6.95156 8.14826L6.43728 7.67855L6.3024 7.82622ZM6.8168 8.29604C6.90097 8.37268 7.01141 8.41396 7.12521 8.41132L7.12058 8.21137C7.05817 8.21282 6.9976 8.19018 6.95145 8.14816L6.8168 8.29604ZM7.12521 8.41132C7.23901 8.40868 7.34742 8.36232 7.42795 8.28187L7.28659 8.14038C7.24243 8.1845 7.18298 8.20992 7.12058 8.21137L7.12521 8.41132ZM7.42794 8.28188L8.62862 7.08257L8.48728 6.94106L7.2866 8.14038L7.42794 8.28188ZM8.62875 9.88428C8.58762 9.84304 8.53874 9.81032 8.48494 9.78799L8.40829 9.97272C8.4378 9.98496 8.4646 10.0029 8.48715 10.0255L8.62875 9.88428ZM8.48494 9.78799C8.43114 9.76567 8.37346 9.75417 8.31521 9.75417V9.95417C8.34715 9.95417 8.37878 9.96048 8.40829 9.97272L8.48494 9.78799ZM8.31521 9.75417C8.25696 9.75417 8.19928 9.76567 8.14548 9.78799L8.22213 9.97272C8.25164 9.96048 8.28327 9.95417 8.31521 9.95417V9.75417ZM8.14548 9.78799C8.09168 9.81032 8.04281 9.84304 8.00167 9.88428L8.14327 10.0255C8.16583 10.0029 8.19263 9.98496 8.22213 9.97272L8.14548 9.78799ZM8.00176 9.88419L7.03353 10.8524L7.17495 10.9938L8.14318 10.0256L8.00176 9.88419ZM7.17162 10.8492L6.89939 10.601L6.76463 10.7488L7.03686 10.997L7.17162 10.8492ZM6.89698 10.5989C6.80962 10.5242 6.69664 10.4864 6.58193 10.4935L6.59426 10.6931C6.65717 10.6892 6.71913 10.71 6.76704 10.7509L6.89698 10.5989ZM6.58193 10.4935C6.46721 10.5006 6.35975 10.552 6.28224 10.6369L6.42992 10.7718C6.47242 10.7252 6.53136 10.697 6.59426 10.6931L6.58193 10.4935ZM6.28224 10.6369C6.20473 10.7217 6.16326 10.8334 6.16657 10.9483L6.36649 10.9425C6.36467 10.8795 6.38742 10.8183 6.42992 10.7718L6.28224 10.6369ZM6.16657 10.9483C6.16989 11.0632 6.21774 11.1723 6.30001 11.2525L6.43967 11.1094C6.39455 11.0654 6.36831 11.0055 6.36649 10.9425L6.16657 10.9483ZM6.3024 11.2548L6.81669 11.7245L6.95156 11.5768L6.43728 11.1071L6.3024 11.2548ZM6.8167 11.7245C6.90075 11.8013 7.01113 11.8427 7.12493 11.8402L7.12058 11.6403C7.05818 11.6416 6.99765 11.6189 6.95155 11.5768L6.8167 11.7245ZM7.12493 11.8402C7.23873 11.8378 7.3472 11.7916 7.42784 11.7112L7.2867 11.5695C7.24247 11.6136 7.18299 11.6389 7.12058 11.6403L7.12493 11.8402ZM7.42798 11.7111L8.62798 10.5111L8.48656 10.3697L7.28656 11.5697L7.42798 11.7111ZM8.62799 10.5111C8.71101 10.428 8.75765 10.3154 8.75765 10.198H8.55765C8.55765 10.2624 8.53208 10.3241 8.48655 10.3697L8.62799 10.5111ZM8.75765 10.198C8.75765 10.0806 8.71101 9.96793 8.62799 9.88489L8.48655 10.0263C8.53208 10.0718 8.55765 10.1336 8.55765 10.198H8.75765ZM9.68664 10.2691C9.56919 10.2691 9.45654 10.3157 9.37349 10.3988L9.51491 10.5402C9.56046 10.4947 9.62223 10.4691 9.68664 10.4691V10.2691ZM9.37349 10.3988C9.29044 10.4818 9.24378 10.5945 9.24378 10.7119H9.44378C9.44378 10.6475 9.46937 10.5857 9.51491 10.5402L9.37349 10.3988ZM9.24378 10.7119C9.24378 10.8294 9.29044 10.942 9.37349 11.0251L9.51491 10.8837C9.46937 10.8381 9.44378 10.7763 9.44378 10.7119H9.24378ZM9.37349 11.0251C9.45654 11.1081 9.56919 11.1548 9.68664 11.1548V10.9548C9.62223 10.9548 9.56046 10.9292 9.51491 10.8837L9.37349 11.0251ZM9.68664 11.1548H11.4009V10.9548H9.68664V11.1548ZM11.4009 11.1548C11.5184 11.1548 11.631 11.1081 11.7141 11.0251L11.5727 10.8837C11.5271 10.9292 11.4653 10.9548 11.4009 10.9548V11.1548ZM11.7141 11.0251C11.7971 10.942 11.8438 10.8294 11.8438 10.7119H11.6438C11.6438 10.7763 11.6182 10.8381 11.5727 10.8837L11.7141 11.0251ZM11.8438 10.7119C11.8438 10.5945 11.7971 10.4818 11.7141 10.3988L11.5727 10.5402C11.6182 10.5857 11.6438 10.6475 11.6438 10.7119H11.8438ZM11.7141 10.3988C11.631 10.3157 11.5184 10.2691 11.4009 10.2691V10.4691C11.4653 10.4691 11.5271 10.4947 11.5727 10.5402L11.7141 10.3988ZM11.4009 10.2691H9.68664V10.4691H11.4009V10.2691ZM9.24378 7.28336C9.24378 7.40081 9.29044 7.51345 9.37349 7.5965L9.51491 7.45508C9.46937 7.40954 9.44378 7.34777 9.44378 7.28336H9.24378ZM9.37349 7.5965C9.45654 7.67956 9.56919 7.72621 9.68664 7.72621V7.52621C9.62223 7.52621 9.56046 7.50063 9.51491 7.45508L9.37349 7.5965ZM9.68664 7.72621H11.4009V7.52621H9.68664V7.72621ZM11.4009 7.72621C11.5184 7.72621 11.631 7.67956 11.7141 7.5965L11.5727 7.45508C11.5271 7.50063 11.4653 7.52621 11.4009 7.52621V7.72621ZM11.7141 7.5965C11.7971 7.51345 11.8438 7.40081 11.8438 7.28336H11.6438C11.6438 7.34777 11.6182 7.40954 11.5727 7.45508L11.7141 7.5965ZM11.8438 7.28336C11.8438 7.1659 11.7971 7.05326 11.7141 6.97021L11.5727 7.11163C11.6182 7.15718 11.6438 7.21895 11.6438 7.28336H11.8438ZM11.7141 6.97021C11.631 6.88716 11.5184 6.8405 11.4009 6.8405V7.0405C11.4653 7.0405 11.5271 7.06609 11.5727 7.11163L11.7141 6.97021ZM11.4009 6.8405H9.68664V7.0405H11.4009V6.8405ZM9.68664 6.8405C9.56919 6.8405 9.45654 6.88716 9.37349 6.97021L9.51491 7.11163C9.56046 7.06609 9.62223 7.0405 9.68664 7.0405V6.8405ZM9.37349 6.97021C9.29044 7.05326 9.24378 7.1659 9.24378 7.28336H9.44378C9.44378 7.21895 9.46937 7.15718 9.51491 7.11163L9.37349 6.97021Z" fill="#E45555" mask="url(#path-3-outside-1_2877_88091)"/>
</svg>
