<svg width="32" height="32" viewBox="0 0 32 32" fill="none" xmlns="http://www.w3.org/2000/svg">
<path d="M0 16C0 7.16344 7.16344 0 16 0C24.8366 0 32 7.16344 32 16C32 24.8366 24.8366 32 16 32C7.16344 32 0 24.8366 0 16Z" fill="#FEFDD9"/>
<path d="M14.0026 16.6663H18.0026M14.0026 19.333H16.0026M10.6693 10.6663V21.333C10.6693 21.6866 10.8097 22.0258 11.0598 22.2758C11.3098 22.5259 11.649 22.6663 12.0026 22.6663H20.0026C20.3562 22.6663 20.6954 22.5259 20.9454 22.2758C21.1955 22.0258 21.3359 21.6866 21.3359 21.333V13.561C21.3359 13.3834 21.3004 13.2075 21.2315 13.0438C21.1626 12.8801 21.0616 12.7318 20.9346 12.6077L17.9746 9.71301C17.7255 9.46945 17.391 9.33305 17.0426 9.33301H12.0026C11.649 9.33301 11.3098 9.47348 11.0598 9.72353C10.8097 9.97358 10.6693 10.3127 10.6693 10.6663Z" stroke="#F1B424" stroke-width="1.2" stroke-linecap="round" stroke-linejoin="round"/>
<path d="M17.3359 9.33301V11.9997C17.3359 12.3533 17.4764 12.6924 17.7265 12.9425C17.9765 13.1925 18.3156 13.333 18.6693 13.333H21.3359" stroke="#F1B424" stroke-width="1.2" stroke-linejoin="round"/>
</svg>
