<svg width="24" height="24" viewBox="0 0 24 24" fill="none" xmlns="http://www.w3.org/2000/svg">
<path d="M0 12C0 5.37258 5.37258 0 12 0C18.6274 0 24 5.37258 24 12C24 18.6274 18.6274 24 12 24C5.37258 24 0 18.6274 0 12Z" fill="#F86969"/>
<path d="M9.9987 12.6663H13.9987M9.9987 15.333H11.9987M6.66537 6.66634V17.333C6.66537 17.6866 6.80584 18.0258 7.05589 18.2758C7.30594 18.5259 7.64508 18.6663 7.9987 18.6663H15.9987C16.3523 18.6663 16.6915 18.5259 16.9415 18.2758C17.1916 18.0258 17.332 17.6866 17.332 17.333V9.56101C17.332 9.38338 17.2965 9.20755 17.2276 9.04384C17.1587 8.88013 17.0577 8.73184 16.9307 8.60767L13.9707 5.71301C13.7216 5.46945 13.3871 5.33305 13.0387 5.33301H7.9987C7.64508 5.33301 7.30594 5.47348 7.05589 5.72353C6.80584 5.97358 6.66537 6.31272 6.66537 6.66634Z" stroke="white" stroke-width="1.2" stroke-linecap="round" stroke-linejoin="round"/>
<path d="M13.332 5.33301V7.99967C13.332 8.3533 13.4725 8.69244 13.7226 8.94248C13.9726 9.19253 14.3117 9.33301 14.6654 9.33301H17.332" stroke="white" stroke-width="1.2" stroke-linejoin="round"/>
</svg>
