<svg width="18" height="18" viewBox="0 0 18 18" fill="none" xmlns="http://www.w3.org/2000/svg">
<path d="M5.29263 8.44994C4.98887 8.44991 4.74261 8.69613 4.74258 8.99989C4.74255 9.30364 4.98877 9.54991 5.29253 9.54994L8.44994 9.55024L8.44994 12.7073C8.44994 13.0111 8.69618 13.2573 8.99994 13.2573C9.3037 13.2573 9.54994 13.0111 9.54994 12.7073V9.54994H12.7073C13.0111 9.54994 13.2573 9.3037 13.2573 8.99994C13.2573 8.69618 13.0111 8.44994 12.7073 8.44994H9.54964L9.54994 5.29263C9.54997 4.98887 9.30375 4.74261 8.99999 4.74258C8.69623 4.74255 8.44997 4.98877 8.44994 5.29253L8.44964 8.45024L5.29263 8.44994Z" fill="#F86969" stroke="#F86969" stroke-width="0.3" stroke-linecap="round" stroke-linejoin="round"/>
</svg>
