<svg width="24" height="24" viewBox="0 0 24 24" fill="none" xmlns="http://www.w3.org/2000/svg">
<path d="M3.59998 7.2001C3.59998 6.24532 3.97926 5.32964 4.65439 4.65451C5.32952 3.97938 6.2452 3.6001 7.19998 3.6001H16.8C17.7548 3.6001 18.6704 3.97938 19.3456 4.65451C20.0207 5.32964 20.4 6.24532 20.4 7.2001V16.8001C20.4 17.7549 20.0207 18.6706 19.3456 19.3457C18.6704 20.0208 17.7548 20.4001 16.8 20.4001H7.19998C6.2452 20.4001 5.32952 20.0208 4.65439 19.3457C3.97926 18.6706 3.59998 17.7549 3.59998 16.8001V7.2001ZM11.2248 8.5249C11.3374 8.41223 11.4007 8.25943 11.4007 8.1001C11.4007 7.94077 11.3374 7.78796 11.2248 7.6753C11.1121 7.56263 10.9593 7.49934 10.8 7.49934C10.6406 7.49934 10.4878 7.56263 10.3752 7.6753L8.68078 9.3697L8.20438 8.9353C8.08601 8.83412 7.93294 8.78293 7.77752 8.79254C7.6221 8.80214 7.47651 8.8718 7.3715 8.98678C7.26649 9.10176 7.21029 9.25306 7.21479 9.40871C7.21928 9.56436 7.28411 9.71217 7.39558 9.8209L8.29558 10.6429C8.40961 10.7467 8.55924 10.8026 8.71342 10.7991C8.8676 10.7955 9.01448 10.7327 9.12358 10.6237L11.2248 8.5249ZM11.2248 13.6753C11.169 13.6194 11.1028 13.5751 11.0299 13.5448C10.957 13.5146 10.8789 13.499 10.8 13.499C10.7211 13.499 10.6429 13.5146 10.57 13.5448C10.4971 13.5751 10.4309 13.6194 10.3752 13.6753L8.68078 15.3697L8.20438 14.9353C8.08601 14.8341 7.93294 14.7829 7.77752 14.7925C7.6221 14.8021 7.47651 14.8718 7.3715 14.9868C7.26649 15.1018 7.21029 15.2531 7.21479 15.4087C7.21928 15.5644 7.28411 15.7122 7.39558 15.8209L8.29558 16.6429C8.40946 16.7469 8.559 16.803 8.71318 16.7997C8.86735 16.7963 9.01432 16.7337 9.12358 16.6249L11.2236 14.5249C11.3361 14.4124 11.3992 14.2598 11.3992 14.1007C11.3992 13.9416 11.3361 13.789 11.2236 13.6765M13.2 14.4001C13.0408 14.4001 12.8882 14.4633 12.7757 14.5758C12.6632 14.6884 12.6 14.841 12.6 15.0001C12.6 15.1592 12.6632 15.3118 12.7757 15.4244C12.8882 15.5369 13.0408 15.6001 13.2 15.6001H16.2C16.3591 15.6001 16.5117 15.5369 16.6242 15.4244C16.7368 15.3118 16.8 15.1592 16.8 15.0001C16.8 14.841 16.7368 14.6884 16.6242 14.5758C16.5117 14.4633 16.3591 14.4001 16.2 14.4001H13.2ZM12.6 9.0001C12.6 9.15923 12.6632 9.31184 12.7757 9.42436C12.8882 9.53688 13.0408 9.6001 13.2 9.6001H16.2C16.3591 9.6001 16.5117 9.53688 16.6242 9.42436C16.7368 9.31184 16.8 9.15923 16.8 9.0001C16.8 8.84097 16.7368 8.68836 16.6242 8.57583C16.5117 8.46331 16.3591 8.4001 16.2 8.4001H13.2C13.0408 8.4001 12.8882 8.46331 12.7757 8.57583C12.6632 8.68836 12.6 8.84097 12.6 9.0001Z" fill="#1C1616"/>
</svg>
