<svg width="24" height="24" viewBox="0 0 24 24" fill="none" xmlns="http://www.w3.org/2000/svg">
<path d="M3.59961 7.19961C3.59961 6.24483 3.97889 5.32916 4.65402 4.65402C5.32916 3.97889 6.24483 3.59961 7.19961 3.59961H16.7996C17.7544 3.59961 18.6701 3.97889 19.3452 4.65402C20.0203 5.32916 20.3996 6.24483 20.3996 7.19961V16.7996C20.3996 17.7544 20.0203 18.6701 19.3452 19.3452C18.6701 20.0203 17.7544 20.3996 16.7996 20.3996H7.19961C6.24483 20.3996 5.32916 20.0203 4.65402 19.3452C3.97889 18.6701 3.59961 17.7544 3.59961 16.7996V7.19961ZM11.2244 8.52441C11.3371 8.41175 11.4004 8.25894 11.4004 8.09961C11.4004 7.94028 11.3371 7.78747 11.2244 7.67481C11.1117 7.56214 10.9589 7.49885 10.7996 7.49885C10.6403 7.49885 10.4875 7.56214 10.3748 7.67481L8.68041 9.36921L8.20401 8.93481C8.08564 8.83364 7.93257 8.78244 7.77715 8.79205C7.62174 8.80165 7.47614 8.87131 7.37113 8.98629C7.26612 9.10127 7.20993 9.25257 7.21442 9.40822C7.21891 9.56387 7.28374 9.71168 7.39521 9.82041L8.29521 10.6424C8.40924 10.7462 8.55888 10.8022 8.71305 10.7986C8.86723 10.795 9.01411 10.7322 9.12321 10.6232L11.2244 8.52441ZM11.2244 13.6748C11.1687 13.6189 11.1025 13.5746 11.0296 13.5444C10.9567 13.5141 10.8785 13.4985 10.7996 13.4985C10.7207 13.4985 10.6425 13.5141 10.5696 13.5444C10.4968 13.5746 10.4305 13.6189 10.3748 13.6748L8.68041 15.3692L8.20401 14.9348C8.08564 14.8336 7.93257 14.7824 7.77715 14.792C7.62174 14.8017 7.47614 14.8713 7.37113 14.9863C7.26612 15.1013 7.20993 15.2526 7.21442 15.4082C7.21891 15.5639 7.28374 15.7117 7.39521 15.8204L8.29521 16.6424C8.40909 16.7464 8.55864 16.8025 8.71281 16.7992C8.86699 16.7958 9.01395 16.7332 9.12321 16.6244L11.2232 14.5244C11.3357 14.4119 11.3989 14.2593 11.3989 14.1002C11.3989 13.9411 11.3357 13.7885 11.2232 13.676M13.1996 14.3996C13.0405 14.3996 12.8879 14.4628 12.7753 14.5753C12.6628 14.6879 12.5996 14.8405 12.5996 14.9996C12.5996 15.1587 12.6628 15.3114 12.7753 15.4239C12.8879 15.5364 13.0405 15.5996 13.1996 15.5996H16.1996C16.3587 15.5996 16.5114 15.5364 16.6239 15.4239C16.7364 15.3114 16.7996 15.1587 16.7996 14.9996C16.7996 14.8405 16.7364 14.6879 16.6239 14.5753C16.5114 14.4628 16.3587 14.3996 16.1996 14.3996H13.1996ZM12.5996 8.99961C12.5996 9.15874 12.6628 9.31135 12.7753 9.42387C12.8879 9.53639 13.0405 9.59961 13.1996 9.59961H16.1996C16.3587 9.59961 16.5114 9.53639 16.6239 9.42387C16.7364 9.31135 16.7996 9.15874 16.7996 8.99961C16.7996 8.84048 16.7364 8.68787 16.6239 8.57535C16.5114 8.46282 16.3587 8.39961 16.1996 8.39961H13.1996C13.0405 8.39961 12.8879 8.46282 12.7753 8.57535C12.6628 8.68787 12.5996 8.84048 12.5996 8.99961Z" fill="#1C1616"/>
</svg>
