<svg width="24" height="24" viewBox="0 0 24 24" fill="none" xmlns="http://www.w3.org/2000/svg">
<path d="M0 12C0 5.37258 5.37258 0 12 0C18.6274 0 24 5.37258 24 12C24 18.6274 18.6274 24 12 24C5.37258 24 0 18.6274 0 12Z" fill="inherit"/>
<path d="M8.03711 6.84762C7.70705 6.5175 7.17188 6.51745 6.84176 6.84751C6.51164 7.17756 6.51159 7.71273 6.84165 8.04285L10.8001 12.002L6.8417 15.9604C6.51162 16.2905 6.51162 16.8256 6.8417 17.1557C7.17179 17.4858 7.70696 17.4858 8.03705 17.1557L11.9958 13.197L15.9545 17.1557C16.2846 17.4858 16.8198 17.4858 17.1499 17.1557C17.4799 16.8256 17.4799 16.2905 17.1499 15.9604L13.1907 12.0013L17.1498 8.04297C17.4799 7.71291 17.48 7.17774 17.1499 6.84762C16.8199 6.5175 16.2847 6.51745 15.9546 6.84751L11.995 10.8063L8.03711 6.84762Z" fill="white" stroke="white" stroke-width="0.3" stroke-linecap="round" stroke-linejoin="round"/>
</svg>
