<svg width="24" height="24" viewBox="0 0 24 24" fill="none" xmlns="http://www.w3.org/2000/svg">
<path fill-rule="evenodd" clip-rule="evenodd" d="M6.19238 6.19129C6.50483 5.8789 7.01136 5.87895 7.32375 6.1914L12.0001 10.8687L16.6784 6.19129C16.9908 5.8789 17.4974 5.87895 17.8097 6.1914C18.1221 6.50385 18.1221 7.01038 17.8096 7.32277L13.1319 11.9996L17.8097 16.6773C18.1221 16.9898 18.1221 17.4963 17.8097 17.8087C17.4973 18.1211 16.9907 18.1211 16.6783 17.8087L12.001 13.1314L7.32369 17.8087C7.01127 18.1211 6.50474 18.1211 6.19232 17.8087C5.8799 17.4963 5.8799 16.9898 6.19232 16.6773L10.8692 12.0005L6.19227 7.32266C5.87988 7.01021 5.87993 6.50368 6.19238 6.19129Z" fill="#1C1616"/>
</svg>
